<svg width="400" height="400" viewBox="0 0 400 400" fill="none" xmlns="http://www.w3.org/2000/svg">
<rect width="400" height="400" rx="100" fill="url(#paint0_radial)" fill-opacity="0.849"/>
<g filter="url(#filter0_d)">
<path d="M115.199 112.276L126.169 92.3674C128.758 87.8787 135.241 87.8786 137.831 92.3671L148.801 112.276L148.824 112.319L148.849 112.362L158.839 129.865L167.41 145.363L167.473 145.476L167.54 145.587L174.223 156.61L175.367 158.816C177.362 162.662 178.771 166.785 179.548 171.048L179.94 173.199C180.312 175.246 180.5 177.323 180.5 179.404V180.089C180.5 182.668 180.161 185.236 179.492 187.727C178.854 190.1 177.921 192.384 176.716 194.525L176.483 194.94C175.231 197.164 173.726 199.236 172 201.115L171.543 201.613C169.701 203.618 167.654 205.425 165.437 207.004L164.626 207.581C162.375 209.185 159.976 210.57 157.462 211.718L155.825 212.465C153.492 213.531 151.068 214.388 148.584 215.026L145.972 215.697C143.603 216.306 141.187 216.714 138.749 216.917L135.604 217.178C133.205 217.377 130.795 217.377 128.396 217.178L125.251 216.917C122.813 216.714 120.397 216.306 118.028 215.697L115.416 215.026C112.932 214.388 110.508 213.531 108.175 212.465L106.538 211.718C104.024 210.57 101.625 209.185 99.3737 207.581L98.5634 207.004C96.3456 205.425 94.2991 203.618 92.4572 201.613L92.0001 201.115C90.2735 199.236 88.7694 197.164 87.5174 194.94L87.2841 194.525C86.0787 192.384 85.1462 190.1 84.5085 187.727C83.8391 185.236 83.5 182.668 83.5 180.089V179.404C83.5 177.323 83.6876 175.246 84.0604 173.199L84.4523 171.048C85.2288 166.785 86.6378 162.662 88.6328 158.816L89.7767 156.61L96.4601 145.587L96.5273 145.476L96.59 145.363L105.161 129.865L115.151 112.362L115.176 112.319L115.199 112.276Z" stroke="url(#paint1_linear)" stroke-width="13"/>
<path d="M256.276 217.659L266.4 197.785C268.468 193.916 274.018 193.916 276.086 197.785L286.21 217.659L286.231 217.7L286.253 217.742L295.473 235.215L303.383 250.687L303.44 250.797L303.501 250.906L309.671 261.913L310.871 264.418C312.631 268.088 313.867 271.987 314.543 276.001L314.975 278.567C315.324 280.641 315.5 282.742 315.5 284.846V285.599C315.5 288.172 315.186 290.736 314.566 293.233C313.964 295.656 313.077 298 311.924 300.215L311.788 300.476C310.609 302.742 309.179 304.869 307.526 306.816L307.251 307.139C305.529 309.167 303.598 311.008 301.49 312.632L301.114 312.921C298.901 314.626 296.523 316.109 294.018 317.346L293.341 317.68C290.9 318.886 288.351 319.86 285.727 320.589L284.496 320.932C281.959 321.637 279.364 322.11 276.742 322.346L275.139 322.49C272.547 322.723 269.939 322.723 267.347 322.49L265.744 322.346C263.122 322.11 260.527 321.637 257.99 320.932L256.759 320.589C254.135 319.86 251.586 318.886 249.145 317.68L248.468 317.346C245.963 316.109 243.586 314.626 241.372 312.921L240.996 312.632C238.888 311.008 236.957 309.167 235.235 307.139L234.96 306.816C233.307 304.869 231.877 302.742 230.698 300.476L230.562 300.215C229.409 298 228.522 295.656 227.92 293.233C227.3 290.736 226.986 288.172 226.986 285.599V284.846C226.986 282.742 227.162 280.641 227.511 278.567L227.943 276.001C228.619 271.987 229.855 268.088 231.615 264.418L232.815 261.913L238.985 250.906L239.046 250.797L239.103 250.687L247.013 235.215L256.233 217.742L256.255 217.7L256.276 217.659Z" stroke="url(#paint2_linear)" stroke-width="13"/>
</g>
<defs>
<filter id="filter0_d" x="73" y="82.5008" width="253" height="254.664" filterUnits="userSpaceOnUse" color-interpolation-filters="sRGB">
<feFlood flood-opacity="0" result="BackgroundImageFix"/>
<feColorMatrix in="SourceAlpha" type="matrix" values="0 0 0 0 0 0 0 0 0 0 0 0 0 0 0 0 0 0 127 0" result="hardAlpha"/>
<feOffset dy="4"/>
<feGaussianBlur stdDeviation="2"/>
<feComposite in2="hardAlpha" operator="out"/>
<feColorMatrix type="matrix" values="0 0 0 0 0 0 0 0 0 0 0 0 0 0 0 0 0 0 0.25 0"/>
<feBlend mode="normal" in2="BackgroundImageFix" result="effect1_dropShadow"/>
<feBlend mode="normal" in="SourceGraphic" in2="effect1_dropShadow" result="shape"/>
</filter>
<radialGradient id="paint0_radial" cx="0" cy="0" r="1" gradientUnits="userSpaceOnUse" gradientTransform="translate(200 200) rotate(90) scale(200)">
<stop stop-color="#121242" stop-opacity="0.51"/>
<stop offset="1" stop-color="#121242" stop-opacity="0"/>
</radialGradient>
<linearGradient id="paint1_linear" x1="77" y1="69" x2="275.5" y2="69" gradientUnits="userSpaceOnUse">
<stop stop-color="#FF0000"/>
<stop offset="0.125" stop-color="#FFA800"/>
<stop offset="0.25" stop-color="#CCFF00"/>
<stop offset="0.375133" stop-color="#14FF00"/>
<stop offset="0.5" stop-color="#00FFF0"/>
<stop offset="0.625" stop-color="#0085FF"/>
<stop offset="0.755208" stop-color="#7000FF"/>
<stop offset="0.885417" stop-color="#FA00FF"/>
<stop offset="1" stop-color="#FF008A"/>
</linearGradient>
<linearGradient id="paint2_linear" x1="116" y1="175" x2="322" y2="175" gradientUnits="userSpaceOnUse">
<stop stop-color="#FF0000"/>
<stop offset="0.125" stop-color="#FFA800"/>
<stop offset="0.25" stop-color="#CCFF00"/>
<stop offset="0.375" stop-color="#14FF00"/>
<stop offset="0.504604" stop-color="#00FFF0"/>
<stop offset="0.625" stop-color="#0085FF"/>
<stop offset="0.755208" stop-color="#7000FF"/>
<stop offset="0.885417" stop-color="#FA00FF"/>
<stop offset="1" stop-color="#FF008A"/>
</linearGradient>
</defs>
</svg>
