<svg width="300" height="300" viewBox="0 0 300 300" fill="none" xmlns="http://www.w3.org/2000/svg">
<circle cx="150" cy="150" r="150" fill="black"/>
<g filter="url(#filter0_i)">
<path fill-rule="evenodd" clip-rule="evenodd" d="M299.895 155.675C299.965 153.792 300 151.9 300 150C300 147.104 299.918 144.228 299.756 141.373C288.631 136.363 279.652 132.094 272.238 128.57C269.074 127.066 266.194 125.697 263.555 124.464C258.669 122.182 254.512 120.32 250.964 118.993C247.465 117.684 244.136 116.727 240.982 116.536C237.612 116.331 234.443 117.001 231.542 118.847C228.84 120.565 226.826 123.023 225.143 125.53C223.455 128.044 221.757 131.147 219.919 134.551C219.697 134.962 219.472 135.379 219.243 135.804L219.22 135.846C217.509 139.021 215.578 142.604 213.219 146.694C211.029 150.491 208.644 152.587 206.061 153.806C203.376 155.074 199.905 155.663 195.147 155.461C187.131 155.122 177.255 152.707 164.245 149.527L164.244 149.527C161.139 148.768 157.854 147.965 154.374 147.137C119.633 138.865 69.9929 129.392 0.174794 142.694C0.0587082 145.115 0 147.551 0 150C0 151.992 0.0388247 153.975 0.115759 155.948C68.754 142.414 117.146 151.636 151.363 159.783C154.494 160.529 157.549 161.278 160.523 162.007L160.523 162.007C173.638 165.223 185.165 168.05 194.597 168.449C200.589 168.703 206.366 168.038 211.611 165.562C216.959 163.037 221.188 158.898 224.481 153.189C226.939 148.926 228.959 145.177 230.668 142.006L230.669 142.006C230.904 141.569 231.134 141.143 231.358 140.728C233.252 137.22 234.657 134.681 235.936 132.776C237.22 130.863 238.036 130.123 238.52 129.815C238.804 129.634 239.175 129.45 240.193 129.512C241.427 129.587 243.333 130.018 246.409 131.169C249.436 132.302 253.193 133.972 258.053 136.242C260.59 137.428 263.404 138.765 266.522 140.248L266.523 140.248C275.125 144.337 286.047 149.53 299.895 155.675Z" fill="url(#paint0_linear)"/>
</g>
<defs>
<filter id="filter0_i" x="0" y="116.5" width="300" height="55.9998" filterUnits="userSpaceOnUse" color-interpolation-filters="sRGB">
<feFlood flood-opacity="0" result="BackgroundImageFix"/>
<feBlend mode="normal" in="SourceGraphic" in2="BackgroundImageFix" result="shape"/>
<feColorMatrix in="SourceAlpha" type="matrix" values="0 0 0 0 0 0 0 0 0 0 0 0 0 0 0 0 0 0 127 0" result="hardAlpha"/>
<feOffset dy="4"/>
<feGaussianBlur stdDeviation="2"/>
<feComposite in2="hardAlpha" operator="arithmetic" k2="-1" k3="1"/>
<feColorMatrix type="matrix" values="0 0 0 0 0 0 0 0 0 0 0 0 0 0 0 0 0 0 0.25 0"/>
<feBlend mode="normal" in2="shape" result="effect1_innerShadow"/>
</filter>
<linearGradient id="paint0_linear" x1="300" y1="166.081" x2="2.50701e-06" y2="166.081" gradientUnits="userSpaceOnUse">
<stop stop-color="#FF005C"/>
<stop offset="0.146362" stop-color="#FF00D6"/>
<stop offset="0.293784" stop-color="#2400FF"/>
<stop offset="0.442826" stop-color="#00F0FF"/>
<stop offset="0.590248" stop-color="#00FF0A"/>
<stop offset="0.73443" stop-color="#FAFF00"/>
<stop offset="0.868892" stop-color="#FF9900"/>
<stop offset="1" stop-color="#FF0000"/>
</linearGradient>
</defs>
</svg>
